<svg width="12" height="13" viewBox="0 0 12 13" fill="none" xmlns="http://www.w3.org/2000/svg">
<path fill-rule="evenodd" clip-rule="evenodd" d="M9.33333 2.3335V1.66683C9.33333 0.930449 8.7364 0.333496 8 0.333496H4C3.26362 0.333496 2.66667 0.930449 2.66667 1.66683V2.3335H0.666667C0.29848 2.3335 0 2.63198 0 3.00016C0 3.36835 0.29848 3.66683 0.666667 3.66683H1.33333V11.0002C1.33333 12.1048 2.22877 13.0002 3.33333 13.0002H8.66667C9.77127 13.0002 10.6667 12.1048 10.6667 11.0002V3.66683H11.3333C11.7015 3.66683 12 3.36835 12 3.00016C12 2.63198 11.7015 2.3335 11.3333 2.3335H9.33333ZM8 1.66683H4V2.3335H8V1.66683ZM9.33333 3.66683H2.66667V11.0002C2.66667 11.3684 2.96515 11.6668 3.33333 11.6668H8.66667C9.03487 11.6668 9.33333 11.3684 9.33333 11.0002V3.66683ZM4 5.00016H5.33333V10.3335H4V5.00016ZM8 5.00016H6.66667V10.3335H8V5.00016Z" fill="#171717" fill-opacity="0.8"/>
</svg>
