<svg width="14" height="14" viewBox="0 0 14 14" fill="none" xmlns="http://www.w3.org/2000/svg">
<path fill-rule="evenodd" clip-rule="evenodd" d="M13 7.00401C12.6318 7.00401 12.3333 7.30248 12.3333 7.67067V11.6707C12.3333 12.0389 12.0349 12.3373 11.6667 12.3373H2.33333C1.96514 12.3373 1.66667 12.0389 1.66667 11.6707V2.33734C1.66667 1.96915 1.96514 1.67067 2.33333 1.67067H6.33333C6.70152 1.67067 7 1.3722 7 1.00401C7 0.635818 6.70152 0.337341 6.33333 0.337341H2.33333C1.22876 0.337341 0.333332 1.23277 0.333332 2.33734V11.6707C0.333332 12.7752 1.22876 13.6707 2.33333 13.6707H11.6667C12.7712 13.6707 13.6667 12.7752 13.6667 11.6707V7.67067C13.6667 7.30248 13.3682 7.00401 13 7.00401ZM3 7.5107V10.3374C3 10.7056 3.29848 11.004 3.66667 11.004H6.49334C6.67054 11.0051 6.84086 10.9355 6.96667 10.8107L11.58 6.19069L13.4733 4.33736C13.5995 4.21218 13.6705 4.04179 13.6705 3.86403C13.6705 3.68627 13.5995 3.51587 13.4733 3.3907L10.6467 0.530695C10.5215 0.404487 10.3511 0.333496 10.1733 0.333496C9.99558 0.333496 9.82518 0.404487 9.7 0.530695L7.82 2.41736L3.19334 7.03736C3.06855 7.16317 2.99898 7.33349 3 7.5107ZM10.1733 1.94404L12.06 3.8307L11.1133 4.77737L9.22667 2.8907L10.1733 1.94404ZM4.33333 7.78401L8.28666 3.83068L10.1733 5.71734L6.22 9.67068H4.33333V7.78401Z" fill="#171717" fill-opacity="0.8"/>
</svg>
