<svg width="16" height="16" viewBox="0 0 16 16" fill="none" xmlns="http://www.w3.org/2000/svg">
<path fill-rule="evenodd" clip-rule="evenodd" d="M7.99992 14.6666C11.6818 14.6666 14.6666 11.6818 14.6666 7.99992C14.6666 4.31802 11.6818 1.33325 7.99992 1.33325C4.31802 1.33325 1.33325 4.31802 1.33325 7.99992C1.33325 11.6818 4.31802 14.6666 7.99992 14.6666ZM7.99992 13.3333C10.9455 13.3333 13.3333 10.9455 13.3333 7.99992C13.3333 5.0544 10.9455 2.66659 7.99992 2.66659C5.0544 2.66659 2.66659 5.0544 2.66659 7.99992C2.66659 10.9455 5.0544 13.3333 7.99992 13.3333ZM8.66659 7.33325V4.66658H7.33325V8.66659H10.6666V7.33325H8.66659Z" fill="#171717"/>
</svg>
